{
    "asset": {
        "version": "2.0",
        "generator": "Open Asset Import Library (assimp v5.2.cf7d3637)"
    },
    "extensionsUsed": [
        "KHR_materials_volume",
        "FB_ngon_encoding"
    ],
    "accessors": [
        {
            "bufferView": 0,
            "byteOffset": 0,
            "componentType": 5126,
            "count": 110274,
            "type": "VEC3",
            "max": [
                0.8382760286331177,
                0.950111985206604,
                -0.0
            ],
            "min": [
                -0.8375890254974365,
                -0.9447100162506104,
                -0.6392530202865601
            ]
        },
        {
            "bufferView": 1,
            "byteOffset": 0,
            "componentType": 5126,
            "count": 110274,
            "type": "VEC3",
            "max": [
                0.9999997615814209,
                1.0,
                0.9999998807907105
            ],
            "min": [
                -0.9999997615814209,
                -0.9999995231628418,
                -1.0
            ]
        },
        {
            "bufferView": 2,
            "byteOffset": 0,
            "componentType": 5126,
            "count": 110274,
            "type": "VEC2",
            "max": [
                0.9682279825210571,
                0.9995970129966736
            ],
            "min": [
                0.0004030000127386302,
                0.000402987003326416
            ]
        },
        {
            "bufferView": 3,
            "byteOffset": 0,
            "componentType": 5125,
            "count": 110274,
            "type": "SCALAR",
            "max": [
                110273
            ],
            "min": [
                0
            ]
        }
    ],
    "buffers": [
        {
            "byteLength": 3969864,
            "uri": "result.bin"
        }
    ],
    "bufferViews": [
        {
            "buffer": 0,
            "byteOffset": 0,
            "byteLength": 1323288,
            "target": 34962
        },
        {
            "buffer": 0,
            "byteOffset": 1323288,
            "byteLength": 1323288,
            "target": 34962
        },
        {
            "buffer": 0,
            "byteOffset": 2646576,
            "byteLength": 882192,
            "target": 34962
        },
        {
            "buffer": 0,
            "byteOffset": 3528768,
            "byteLength": 441096,
            "target": 34963
        }
    ],
    "images": [
        {
            "name": "shaded",
            "uri": "data:image/png;base64,"
        }
    ],
    "materials": [
        {
            "name": "CustomMaterial",
            "pbrMetallicRoughness": {
                "baseColorFactor": [
                    0.0,
                    0.0,
                    0.0,
                    1.0
                ],
                "metallicFactor": 0.0
            },
            "emissiveTexture": {
                "index": 0
            },
            "emissiveFactor": [
                1.0,
                1.0,
                1.0
            ],
            "doubleSided": true
        },
        {
            "name": "material"
        }
    ],
    "meshes": [
        {
            "name": "model",
            "primitives": [
                {
                    "mode": 4,
                    "material": 0,
                    "indices": 3,
                    "attributes": {
                        "POSITION": 0,
                        "NORMAL": 1,
                        "TEXCOORD_0": 2
                    }
                }
            ]
        }
    ],
    "nodes": [
        {
            "name": "model",
            "matrix": [
                1.0,
                0.0,
                0.0,
                0.0,
                0.0,
                -1.1920928955078126e-7,
                1.0000001192092896,
                0.0,
                0.0,
                -1.0000001192092896,
                -1.1920928955078126e-7,
                0.0,
                0.0,
                0.0,
                0.0,
                1.0
            ],
            "mesh": 0
        }
    ],
    "samplers": [
        {
            "magFilter": 9729,
            "minFilter": 9987
        }
    ],
    "scenes": [
        {
            "nodes": [
                0
            ]
        }
    ],
    "textures": [
        {
            "source": 0,
            "sampler": 0
        }
    ],
    "scene": 0
}