{
    "asset": {
        "version": "2.0",
        "generator": "Open Asset Import Library (assimp v5.2.cf7d3637)"
    },
    "extensionsUsed": [
        "KHR_materials_volume",
        "FB_ngon_encoding"
    ],
    "accessors": [
        {
            "bufferView": 0,
            "byteOffset": 0,
            "componentType": 5126,
            "count": 116544,
            "type": "VEC3",
            "max": [
                0.9515720009803772,
                0.716867983341217,
                -0.0
            ],
            "min": [
                -0.9511520266532898,
                -0.7200080156326294,
                -0.6786980032920837
            ]
        },
        {
            "bufferView": 1,
            "byteOffset": 0,
            "componentType": 5126,
            "count": 116544,
            "type": "VEC3",
            "max": [
                0.9999998807907105,
                1.0,
                0.9999994039535523
            ],
            "min": [
                -0.9999998807907105,
                -1.0,
                -1.0
            ]
        },
        {
            "bufferView": 2,
            "byteOffset": 0,
            "componentType": 5126,
            "count": 116544,
            "type": "VEC2",
            "max": [
                0.9996560215950012,
                0.9996560215950012
            ],
            "min": [
                0.0003440000000409782,
                0.07221698760986328
            ]
        },
        {
            "bufferView": 3,
            "byteOffset": 0,
            "componentType": 5125,
            "count": 116544,
            "type": "SCALAR",
            "max": [
                116543
            ],
            "min": [
                0
            ]
        }
    ],
    "buffers": [
        {
            "byteLength": 4195584,
            "uri": "result.bin"
        }
    ],
    "bufferViews": [
        {
            "buffer": 0,
            "byteOffset": 0,
            "byteLength": 1398528,
            "target": 34962
        },
        {
            "buffer": 0,
            "byteOffset": 1398528,
            "byteLength": 1398528,
            "target": 34962
        },
        {
            "buffer": 0,
            "byteOffset": 2797056,
            "byteLength": 932352,
            "target": 34962
        },
        {
            "buffer": 0,
            "byteOffset": 3729408,
            "byteLength": 466176,
            "target": 34963
        }
    ],
    "images": [
        {
            "name": "shaded",
            "uri": "data:image/png;base64,"
        }
    ],
    "materials": [
        {
            "name": "CustomMaterial",
            "pbrMetallicRoughness": {
                "baseColorFactor": [
                    0.0,
                    0.0,
                    0.0,
                    1.0
                ],
                "metallicFactor": 0.0
            },
            "emissiveTexture": {
                "index": 0
            },
            "emissiveFactor": [
                1.0,
                1.0,
                1.0
            ],
            "doubleSided": true
        },
        {
            "name": "material"
        }
    ],
    "meshes": [
        {
            "name": "model",
            "primitives": [
                {
                    "mode": 4,
                    "material": 0,
                    "indices": 3,
                    "attributes": {
                        "POSITION": 0,
                        "NORMAL": 1,
                        "TEXCOORD_0": 2
                    }
                }
            ]
        }
    ],
    "nodes": [
        {
            "name": "model",
            "matrix": [
                1.0,
                0.0,
                0.0,
                0.0,
                0.0,
                -1.1920928955078126e-7,
                1.0000001192092896,
                0.0,
                0.0,
                -1.0000001192092896,
                -1.1920928955078126e-7,
                0.0,
                0.0,
                0.0,
                0.0,
                1.0
            ],
            "mesh": 0
        }
    ],
    "samplers": [
        {
            "magFilter": 9729,
            "minFilter": 9987
        }
    ],
    "scenes": [
        {
            "nodes": [
                0
            ]
        }
    ],
    "textures": [
        {
            "source": 0,
            "sampler": 0
        }
    ],
    "scene": 0
}